<?xml version="1.0" encoding="UTF-8"?>
<svg width="400px" height="300px" viewBox="0 0 400 300" version="1.1" xmlns="http://www.w3.org/2000/svg" xmlns:xlink="http://www.w3.org/1999/xlink">
    <title>Collaboration Illustration</title>
    <defs>
        <linearGradient x1="50%" y1="0%" x2="50%" y2="100%" id="linearGradient-1">
            <stop stop-color="#4A6FA5" offset="0%"></stop>
            <stop stop-color="#2A4365" offset="100%"></stop>
        </linearGradient>
        <linearGradient x1="50%" y1="0%" x2="50%" y2="100%" id="linearGradient-2">
            <stop stop-color="#EBF4FF" offset="0%"></stop>
            <stop stop-color="#C3DAFE" offset="100%"></stop>
        </linearGradient>
    </defs>
    <g id="Page-1" stroke="none" stroke-width="1" fill="none" fill-rule="evenodd">
        <g id="Collaboration">
            <rect id="Background" fill="#F7FAFC" x="0" y="0" width="400" height="300" rx="8"></rect>
            <g id="Document" transform="translate(100.000000, 50.000000)">
                <rect id="Paper" fill="#FFFFFF" x="0" y="0" width="200" height="200" rx="8"></rect>
                <rect id="Shadow" fill-opacity="0.1" fill="#2D3748" x="0" y="0" width="200" height="16" rx="4"></rect>
                <rect id="Line-1" fill="#EDF2F7" x="20" y="40" width="160" height="8" rx="4"></rect>
                <rect id="Line-2" fill="#EDF2F7" x="20" y="60" width="120" height="8" rx="4"></rect>
                <rect id="Line-3" fill="#EDF2F7" x="20" y="80" width="140" height="8" rx="4"></rect>
                <rect id="Line-4" fill="#EDF2F7" x="20" y="100" width="100" height="8" rx="4"></rect>
                <rect id="Line-5" fill="#EDF2F7" x="20" y="120" width="160" height="8" rx="4"></rect>
                <rect id="Line-6" fill="#EDF2F7" x="20" y="140" width="130" height="8" rx="4"></rect>
                <rect id="Line-7" fill="#EDF2F7" x="20" y="160" width="110" height="8" rx="4"></rect>
                <rect id="Cursor" fill="url(#linearGradient-1)" x="150" y="100" width="3" height="16" rx="1.5"></rect>
            </g>
            <g id="Person1" transform="translate(60.000000, 120.000000)">
                <circle id="Avatar-bg" fill="url(#linearGradient-2)" cx="25" cy="25" r="25"></circle>
                <g id="Avatar" transform="translate(10.000000, 10.000000)" fill="url(#linearGradient-1)">
                    <path d="M15,0 C23.2842712,0 30,6.71572875 30,15 C30,23.2842712 23.2842712,30 15,30 C6.71572875,30 0,23.2842712 0,15 C0,6.71572875 6.71572875,0 15,0 Z M15,20 C11.6862915,20 9,22.6862915 9,26 L21,26 C21,22.6862915 18.3137085,20 15,20 Z M15,6 C12.2385763,6 10,8.23857625 10,11 C10,13.7614237 12.2385763,16 15,16 C17.7614237,16 20,13.7614237 20,11 C20,8.23857625 17.7614237,6 15,6 Z" id="Combined-Shape"></path>
                </g>
            </g>
            <g id="Person2" transform="translate(300.000000, 150.000000)">
                <circle id="Avatar-bg" fill="url(#linearGradient-2)" cx="20" cy="20" r="20"></circle>
                <g id="Avatar" transform="translate(8.000000, 8.000000)" fill="url(#linearGradient-1)">
                    <path d="M12,0 C18.627417,0 24,5.372583 24,12 C24,18.627417 18.627417,24 12,24 C5.372583,24 0,18.627417 0,12 C0,5.372583 5.372583,0 12,0 Z M12,16 C9.34903314,16 7.2,18.1490331 7.2,20.8 L16.8,20.8 C16.8,18.1490331 14.6509669,16 12,16 Z M12,4.8 C9.79086102,4.8 8,6.59086102 8,8.8 C8,11.009139 9.79086102,12.8 12,12.8 C14.209139,12.8 16,11.009139 16,8.8 C16,6.59086102 14.209139,4.8 12,4.8 Z" id="Combined-Shape"></path>
                </g>
            </g>
            <g id="Connection" transform="translate(90.000000, 130.000000)" stroke="url(#linearGradient-1)" stroke-dasharray="4,2" stroke-linecap="round" stroke-width="2">
                <path d="M0,0 C40,10 180,30 220,40" id="Path"></path>
            </g>
        </g>
    </g>
</svg>
