<?xml version="1.0" encoding="UTF-8"?>
<svg width="400px" height="300px" viewBox="0 0 400 300" version="1.1" xmlns="http://www.w3.org/2000/svg" xmlns:xlink="http://www.w3.org/1999/xlink">
    <title>Forgot Password Illustration</title>
    <defs>
        <linearGradient x1="50%" y1="0%" x2="50%" y2="100%" id="linearGradient-1">
            <stop stop-color="#4A6FA5" offset="0%"></stop>
            <stop stop-color="#2A4365" offset="100%"></stop>
        </linearGradient>
        <linearGradient x1="50%" y1="0%" x2="50%" y2="100%" id="linearGradient-2">
            <stop stop-color="#EBF4FF" offset="0%"></stop>
            <stop stop-color="#C3DAFE" offset="100%"></stop>
        </linearGradient>
    </defs>
    <g id="Page-1" stroke="none" stroke-width="1" fill="none" fill-rule="evenodd">
        <g id="Forgot-Password">
            <rect id="Background" fill="#F7FAFC" x="0" y="0" width="400" height="300" rx="8"></rect>
            <g id="Envelope" transform="translate(125.000000, 100.000000)">
                <rect id="Body" fill="#FFFFFF" x="0" y="0" width="150" height="100" rx="8"></rect>
                <path d="M0,0 L67.5,50 C71.6421356,53.1421356 77.3578644,53.1421356 81.5,50 L150,0" id="Top" fill="url(#linearGradient-2)"></path>
                <path d="M0,0 L67.5,50 C71.6421356,53.1421356 77.3578644,53.1421356 81.5,50 L150,0" id="Lines" stroke="url(#linearGradient-1)" stroke-width="3" stroke-linecap="round" stroke-linejoin="round" stroke-dasharray="6,3"></path>
            </g>
            <g id="Key" transform="translate(175.000000, 125.000000)">
                <circle id="Head" fill="url(#linearGradient-1)" cx="15" cy="15" r="15"></circle>
                <rect id="Shaft" fill="url(#linearGradient-1)" x="30" y="12.5" width="30" height="5" rx="2.5"></rect>
                <rect id="Teeth-1" fill="url(#linearGradient-1)" x="40" y="17.5" width="5" height="10" rx="1"></rect>
                <rect id="Teeth-2" fill="url(#linearGradient-1)" x="50" y="17.5" width="5" height="7.5" rx="1"></rect>
            </g>
            <g id="Question-Mark" transform="translate(300.000000, 75.000000)">
                <circle id="Background" fill="url(#linearGradient-2)" cx="25" cy="25" r="25"></circle>
                <path d="M25,35 L25,40" id="Dot" stroke="url(#linearGradient-1)" stroke-width="6" stroke-linecap="round"></path>
                <path d="M25,10 C20.0294373,10 16,14.0294373 16,19 C16,21.6666667 17.6666667,24.3333333 21,27 C24.3333333,29.6666667 26,31.6666667 26,33" id="Question" stroke="url(#linearGradient-1)" stroke-width="6" stroke-linecap="round"></path>
            </g>
            <g id="Magnifying-Glass" transform="translate(50.000000, 75.000000)">
                <circle id="Glass" stroke="url(#linearGradient-1)" stroke-width="6" cx="25" cy="25" r="20"></circle>
                <path d="M40,40 L55,55" id="Handle" stroke="url(#linearGradient-1)" stroke-width="6" stroke-linecap="round"></path>
            </g>
        </g>
    </g>
</svg>
