<?xml version="1.0" encoding="UTF-8"?>
<svg width="400px" height="300px" viewBox="0 0 400 300" version="1.1" xmlns="http://www.w3.org/2000/svg" xmlns:xlink="http://www.w3.org/1999/xlink">
    <title>Login Illustration</title>
    <defs>
        <linearGradient x1="50%" y1="0%" x2="50%" y2="100%" id="linearGradient-1">
            <stop stop-color="#4A6FA5" offset="0%"></stop>
            <stop stop-color="#2A4365" offset="100%"></stop>
        </linearGradient>
        <linearGradient x1="50%" y1="0%" x2="50%" y2="100%" id="linearGradient-2">
            <stop stop-color="#EBF4FF" offset="0%"></stop>
            <stop stop-color="#C3DAFE" offset="100%"></stop>
        </linearGradient>
    </defs>
    <g id="Page-1" stroke="none" stroke-width="1" fill="none" fill-rule="evenodd">
        <g id="Login">
            <rect id="Background" fill="#F7FAFC" x="0" y="0" width="400" height="300" rx="8"></rect>
            <g id="Lock" transform="translate(150.000000, 70.000000)">
                <rect id="Body" fill="url(#linearGradient-1)" x="0" y="40" width="100" height="120" rx="10"></rect>
                <path d="M25,40 L25,30 C25,13.4314575 38.4314575,0 55,0 C71.5685425,0 85,13.4314575 85,30 L85,40" id="Handle" stroke="url(#linearGradient-1)" stroke-width="12" stroke-linecap="round"></path>
                <circle id="Keyhole" fill="#FFFFFF" cx="50" cy="90" r="15"></circle>
            </g>
            <g id="Key" transform="translate(100.000000, 180.000000)">
                <circle id="Head" fill="url(#linearGradient-2)" cx="20" cy="20" r="20"></circle>
                <rect id="Shaft" fill="url(#linearGradient-2)" x="40" y="15" width="60" height="10" rx="5"></rect>
                <rect id="Teeth-1" fill="url(#linearGradient-2)" x="60" y="25" width="10" height="15" rx="2"></rect>
                <rect id="Teeth-2" fill="url(#linearGradient-2)" x="80" y="25" width="10" height="20" rx="2"></rect>
            </g>
        </g>
    </g>
</svg>
